<?xml version="1.0" encoding="utf-8"?>
<!-- Generator: Adobe Illustrator 15.0.2, SVG Export Plug-In . SVG Version: 6.00 Build 0)  -->
<!DOCTYPE svg PUBLIC "-//W3C//DTD SVG 1.1//EN" "http://www.w3.org/Graphics/SVG/1.1/DTD/svg11.dtd">
<svg version="1.1" id="Layer_1" xmlns="http://www.w3.org/2000/svg" xmlns:xlink="http://www.w3.org/1999/xlink" x="0px" y="0px"
	 width="170px" height="135px" viewBox="0 0 170 135" enable-background="new 0 0 170 135" xml:space="preserve">
<g>
	<g>
		<g>
			<path fill="#FFFFFF" d="M20.91,46.265c2.005-3.509,9.384-5.354,12.83-7.012c5.766-2.774,11.461-5.691,17.248-8.422
				c10.93-5.158,21.593-11.152,32.747-15.794c2.605-1.084,4.943,0.809,7.263,2.036c2.715,1.436,5.571,2.643,8.343,3.967
				c5.772,2.758,11.447,5.726,17.243,8.434s11.54,5.527,17.27,8.373c5.188,2.577,11.264,4.464,15.58,8.419
				c-0.81-0.741,0.851-4.221,0-5c-3.922-3.593-9.168-5.213-13.862-7.562c-5.722-2.863-11.472-5.67-17.252-8.413
				C107.463,20.138,96.665,13.404,85.32,9.458c-1.469-0.511-6.365,2.754-7.719,3.44c-2.527,1.279-5.033,2.559-7.642,3.665
				c-5.857,2.483-11.495,5.698-17.238,8.445c-5.772,2.761-11.5,5.607-17.253,8.409c-2.875,1.4-5.764,2.773-8.657,4.136
				c-1.926,0.907-4.78,1.751-5.9,3.712C20.183,42.537,21.618,45.025,20.91,46.265L20.91,46.265z"/>
		</g>
	</g>
	<g>
		<g>
			<path fill="#FFFFFF" d="M20.91,46.265c2.551,1.929,9.81,0.586,12.971,0.591c5.278,0.01,10.555,0.021,15.833,0.032
				c11.218,0.023,22.436,0.046,33.653,0.056c11.216,0.01,22.432,0.002,33.647-0.03c5.275-0.016,10.551-0.04,15.826-0.069
				c2.637-0.015,5.273-0.033,7.91-0.051c2.455-0.018,6.573,0.734,8.684-0.529c0.762-0.456-0.706-4.577,0-5
				c-1.751,1.048-4.688,0.499-6.707,0.514c-2.636,0.021-5.272,0.038-7.909,0.055c-5.274,0.033-10.55,0.056-15.825,0.074
				c-11.215,0.039-22.431,0.044-33.646,0.038c-11.218-0.006-22.436-0.03-33.653-0.054c-5.278-0.011-10.556-0.022-15.833-0.032
				c-2.638-0.005-5.276-0.01-7.915-0.014c-2.017-0.003-5.342,0.7-7.036-0.581C21.687,41.853,20.084,45.64,20.91,46.265L20.91,46.265
				z"/>
		</g>
	</g>
	<g>
		<g>
			<path fill="#FFFFFF" d="M29.231,62.652c0-5.13,0-10.26,0-15.39c0-0.912-3.863-0.268-3.863,1.035c0,5.13,0,10.26,0,15.39
				C25.368,64.599,29.231,63.955,29.231,62.652L29.231,62.652z"/>
		</g>
	</g>
	<g>
		<g>
			<path fill="#FFFFFF" d="M58.087,94.395c0-15.711,0-31.421,0-47.132c0-0.827-3.863-0.209-3.863,1.035c0,15.711,0,31.421,0,47.132
				C54.224,96.257,58.087,95.639,58.087,94.395L58.087,94.395z"/>
		</g>
	</g>
	<g>
		<g>
			<path fill="#FFFFFF" d="M86.96,62.992c0-5.13,0-10.26,0-15.39c0-1.908-3.898-1.228-3.898,0.355c0,5.13,0,10.26,0,15.39
				C83.062,65.255,86.96,64.575,86.96,62.992L86.96,62.992z"/>
		</g>
	</g>
	<g>
		<g>
			<path fill="#FFFFFF" d="M115.799,94.395c0-15.711,0-31.421,0-47.132c0-0.939-3.863-0.287-3.863,1.035c0,15.711,0,31.421,0,47.132
				C111.936,96.368,115.799,95.716,115.799,94.395L115.799,94.395z"/>
		</g>
	</g>
	<g>
		<g>
			<path fill="#FFFFFF" d="M144.654,62.652c0-5.13,0-10.26,0-15.39c0-0.985-3.863-0.318-3.863,1.035c0,5.13,0,10.26,0,15.39
				C140.791,64.672,144.654,64.005,144.654,62.652L144.654,62.652z"/>
		</g>
	</g>
	<g>
		<g>
			<path fill="#FFFFFF" d="M23.484,91.931c-1.485-2.204-3.875-3.419-5.226-5.96c-1.331-2.504-1.381-4.444-0.554-7.06
				c1.837-5.804,7.113-8.874,12.878-9.533c5.665-0.647,10.695,3.006,13.437,7.664c1.355,2.303,1.913,4.453,1.165,6.986
				c-0.426,1.444-1.232,2.738-2.06,3.977c-0.953,1.427-2.937,2.453-3.673,3.894c-0.683,1.336,0.667,3.694,0,5
				c0.868-1.696,3.182-3.158,4.319-4.86c1.216-1.818,1.787-3.974,2.086-6.11c0.306-2.185,0.116-4.533,0.078-6.729
				C45.799,71.28,39.57,64.691,31.671,64.34c-8.542-0.38-14.761,6.861-14.899,14.975c-0.038,2.2-0.206,4.538,0.098,6.723
				c0.293,2.104,0.875,3.968,1.872,5.844c1.165,2.191,3.459,3.145,4.742,5.05C22.724,95.803,24.268,93.094,23.484,91.931
				L23.484,91.931z"/>
		</g>
	</g>
	<g>
		<g>
			<path fill="#FFFFFF" d="M23.484,96.931c5.297,2.295,10.654,2.12,15.967-0.032c0.612-0.248-0.547-4.778,0-5
				c-5.313,2.152-10.67,2.327-15.967,0.032C24.06,92.18,22.844,96.653,23.484,96.931L23.484,96.931z"/>
		</g>
	</g>
	<g>
		<g>
			<path fill="#FFFFFF" d="M23.484,91.931C10.699,98.125,8.378,112.329,9.25,125.153c0.002,0.029,0.004,0.06,0.007,0.089
				c14.916,0.354,29.834,0.369,44.75-0.008c0.002-0.029,0.004-0.06,0.007-0.089c0.284-5.003,0.262-10.104-0.68-15.034
				c-0.728-3.809-2.297-7.388-4.435-10.604c-1.172-1.764-2.712-3.221-4.343-4.548c-1.556-1.266-3.662-1.749-5.104-3.062
				c0.809,0.736-0.85,4.227,0,5c2.382,2.168,5.528,3.158,7.88,5.633c2.346,2.469,3.839,5.664,4.982,8.826
				c0.588,1.628,0.94,3.333,1.264,5.028c0.565,2.956-0.272,3.869-3.438,3.941c-5.839,0.134-11.681,0.184-17.522,0.195
				c-5.201,0.011-10.402-0.041-15.602-0.121c-1.166-0.018-7.704,0.64-7.841-1.386c-0.087-1.28,0.583-3.182,0.856-4.461
				c1.635-7.631,6.417-14.214,13.454-17.624C24.168,96.6,22.861,92.232,23.484,91.931L23.484,91.931z"/>
		</g>
	</g>
	<g>
		<g>
			<path fill="#FFFFFF" d="M77.013,91.914c-2.016-2.969-6.986-6.078-6.448-10.369c0.599-4.777,4.052-8.556,8.136-10.736
				c10.022-5.352,19.795,3.262,21.071,13.019c-0.004-1.553-0.008-3.106-0.013-4.659c-0.079,5.906-3.697,8.412-6.751,12.746
				c-0.797,1.131,0.771,3.904,0,5c2.908-4.127,5.933-6.378,6.746-11.758c0.268-1.771,0.054-3.806,0.035-5.597
				c-0.082-8.251-6.381-14.702-14.535-15.216c-8.566-0.541-14.781,7.275-14.917,15.205c-0.034,1.984-0.024,3.967,0.076,5.949
				c0.268,5.286,3.938,7.498,6.599,11.417C76.25,95.791,77.799,93.072,77.013,91.914L77.013,91.914z"/>
		</g>
	</g>
	<g>
		<g>
			<path fill="#FFFFFF" d="M77.013,96.914c5.303,2.233,10.693,2.232,15.996,0c0.628-0.265-0.563-4.763,0-5
				c-5.303,2.232-10.693,2.233-15.996,0C77.577,92.151,76.385,96.649,77.013,96.914L77.013,96.914z"/>
		</g>
	</g>
	<g>
		<g>
			<path fill="#FFFFFF" d="M77.013,91.914c-2.991,2.563-6.275,3.746-8.868,7.006c-2.465,3.099-3.814,6.996-4.735,10.791
				c-1.201,4.952-1.036,10.292-0.853,15.356c0.002,0.029,0.004,0.06,0.007,0.089c14.961,0.503,29.927,0.488,44.888,0.009
				c0.002-0.029,0.005-0.06,0.007-0.089c0.188-5.003,0.184-10.03-0.761-14.962c-0.722-3.768-2.242-7.314-4.331-10.515
				c-2.492-3.819-6.194-4.884-9.357-7.686c0.806,0.714-0.848,4.249,0,5c2.442,2.163,5.482,3.203,7.823,5.715
				c2.589,2.778,4.135,6.418,5.245,9.992c0.509,1.636,0.796,3.335,1.06,5.023c0.17,1.231,0.28,2.469,0.331,3.711
				c-1.109-1.098-2.406-1.455-3.891-1.072c-5.861,0.171-11.725,0.24-17.588,0.259c-5.22,0.016-10.44-0.053-15.659-0.162
				c-0.917-0.019-7.726-0.85-7.774,0.817c0.076-2.636,0.549-5.23,1.168-7.784c0.833-3.434,2.395-6.616,4.42-9.493
				c2.411-3.424,5.896-4.459,8.868-7.006C77.857,96.19,76.211,92.601,77.013,91.914L77.013,91.914z"/>
		</g>
	</g>
	<g>
		<g>
			<path fill="#FFFFFF" d="M130.25,91.931c-1.485-2.204-3.876-3.419-5.226-5.96c-1.331-2.504-1.382-4.444-0.554-7.06
				c1.837-5.803,7.112-8.874,12.878-9.533c5.664-0.647,10.695,3.006,13.437,7.664c1.355,2.303,1.913,4.453,1.166,6.986
				c-0.427,1.444-1.232,2.738-2.061,3.977c-0.954,1.429-2.933,2.452-3.674,3.894c-0.686,1.332,0.67,3.698,0,5
				c0.874-1.699,3.181-3.154,4.32-4.86c1.216-1.818,1.786-3.974,2.086-6.11c0.306-2.185,0.115-4.533,0.078-6.729
				c-0.135-7.919-6.365-14.508-14.264-14.859c-8.542-0.38-14.761,6.861-14.899,14.975c-0.037,2.2-0.206,4.538,0.098,6.723
				c0.293,2.104,0.875,3.968,1.872,5.844c1.164,2.191,3.459,3.146,4.742,5.05C129.49,95.803,131.033,93.094,130.25,91.931
				L130.25,91.931z"/>
		</g>
	</g>
	<g>
		<g>
			<path fill="#FFFFFF" d="M130.25,96.931c5.297,2.295,10.654,2.12,15.967-0.032c0.612-0.248-0.547-4.778,0-5
				c-5.312,2.152-10.67,2.327-15.967,0.032C130.826,92.181,129.61,96.653,130.25,96.931L130.25,96.931z"/>
		</g>
	</g>
	<g>
		<g>
			<path fill="#FFFFFF" d="M130.25,91.931c-12.785,6.194-15.105,20.398-14.234,33.223c0.002,0.029,0.005,0.06,0.007,0.089
				c14.916,0.354,29.835,0.369,44.751-0.008c0.002-0.029,0.005-0.06,0.007-0.089c0.284-5.003,0.262-10.104-0.68-15.034
				c-0.729-3.809-2.298-7.388-4.436-10.604c-1.172-1.764-2.712-3.221-4.343-4.548c-1.557-1.266-3.662-1.749-5.105-3.062
				c0.809,0.735-0.85,4.228,0,5c2.384,2.168,5.528,3.157,7.881,5.633c2.346,2.469,3.839,5.664,4.982,8.826
				c0.588,1.628,0.939,3.333,1.264,5.028c0.564,2.956-0.272,3.869-3.438,3.941c-5.839,0.134-11.681,0.184-17.521,0.195
				c-5.201,0.011-10.402-0.041-15.603-0.121c-1.165-0.018-7.704,0.64-7.842-1.386c-0.087-1.28,0.582-3.182,0.856-4.461
				c1.635-7.631,6.416-14.214,13.454-17.624C130.935,96.6,129.627,92.232,130.25,91.931L130.25,91.931z"/>
		</g>
	</g>
</g>
</svg>
