<?xml version="1.0" encoding="iso-8859-1"?>
<!-- Generator: Adobe Illustrator 16.0.0, SVG Export Plug-In . SVG Version: 6.00 Build 0)  -->
<!DOCTYPE svg PUBLIC "-//W3C//DTD SVG 1.1//EN" "http://www.w3.org/Graphics/SVG/1.1/DTD/svg11.dtd">
<svg xmlns="http://www.w3.org/2000/svg" xmlns:xlink="http://www.w3.org/1999/xlink" version="1.1" id="Capa_1" x="0px" y="0px" width="512px" height="512px" viewBox="0 0 569.146 569.146" style="enable-background:new 0 0 569.146 569.146;" xml:space="preserve">
<g>
	<g>
		<path d="M97.777,179.485h122.05c19.778,0,11.181-26.388,11.181-26.388L187.901,8.416c-4.142-13.875-17.206-7.417-23.916-2.975    c-46.695,34.828-78.981,87.421-86.363,147.618C77.566,153.609,74.851,179.485,97.777,179.485L97.777,179.485z" fill="#FFFFFF"/>
	</g>
	<path d="M493.151,241.638c-0.112-25.646-24.878-27.945-31.948-28.071H97.777c-20.164,0-20.901,15.875-20.494,21.799   c11.307,101.005,100.277,179.701,208.426,179.701C391.582,415.066,478.908,339.581,493.151,241.638L493.151,241.638z" fill="#FFFFFF"/>
	<path d="M142.243,436.652c36.584,0,66.247,29.649,66.247,66.238s-29.663,66.256-66.247,66.256   c-36.589,0-66.247-29.667-66.247-66.256S105.654,436.652,142.243,436.652L142.243,436.652z" fill="#FFFFFF"/>
	<path d="M426.913,436.652c36.589,0,66.238,29.649,66.238,66.238s-29.649,66.256-66.238,66.256s-66.256-29.667-66.256-66.256   S390.324,436.652,426.913,436.652L426.913,436.652z" fill="#FFFFFF"/>
</g>
<g>
</g>
<g>
</g>
<g>
</g>
<g>
</g>
<g>
</g>
<g>
</g>
<g>
</g>
<g>
</g>
<g>
</g>
<g>
</g>
<g>
</g>
<g>
</g>
<g>
</g>
<g>
</g>
<g>
</g>
</svg>
