<?xml version="1.0" encoding="utf-8"?>
<!-- Generator: Adobe Illustrator 15.0.2, SVG Export Plug-In . SVG Version: 6.00 Build 0)  -->
<!DOCTYPE svg PUBLIC "-//W3C//DTD SVG 1.1//EN" "http://www.w3.org/Graphics/SVG/1.1/DTD/svg11.dtd">
<svg version="1.1" id="Layer_1" xmlns="http://www.w3.org/2000/svg" xmlns:xlink="http://www.w3.org/1999/xlink" x="0px" y="0px"
	 width="170px" height="135px" viewBox="0 0 170 135" enable-background="new 0 0 170 135" xml:space="preserve">
<g>
	<g>
		<g>
			<path fill="#FFFFFF" d="M72.771,112.087c0.301,2.382,0.688,4.747,1.074,7.116c0.195,1.191,0.361,2.387,0.499,3.586
				c0.76,2.077,0.126,2.818-1.902,2.223c-5.842,0.148-11.686,0.231-17.529,0.288c-11.074,0.106-22.149,0.037-33.223-0.124
				c-2.594-0.038-5.188-0.086-7.781-0.137c-2.557,0.595-3.155-0.655-1.796-3.749c0.148-1.167,0.328-2.329,0.54-3.486
				c0.758-4.479,1.984-8.843,3.938-12.948c3.127-6.564,9.202-10.633,15.312-14.13c0.747-0.427-0.689-4.605,0-5
				c-9.935,5.688-15.907,12.331-18.562,23.655c-1.083,4.618-1.586,9.265-1.599,13.997c-0.003,1.024-0.013,2.051,0.018,3.075
				c0.053,1.834,0.048,1.722,0.208,3.546c0.011,0.124,7.16,0.135,7.775,0.146c16.271,0.276,32.545,0.278,48.815-0.045
				c1.941-0.039,3.882-0.087,5.823-0.137c0.067-0.001,0.167-1.537,0.179-2.131c0.029-1.54,0.05-3.077,0.046-4.617
				c-0.016-5.453-1.154-10.737-1.835-16.127C72.977,108.722,72.562,110.442,72.771,112.087L72.771,112.087z"/>
		</g>
	</g>
	<g>
		<g>
			<path fill="#FFFFFF" d="M31.902,85.726c-0.542-1.578-3.974-3.942-5.117-5.376c-2.161-2.711-3.465-5.876-4.138-9.249
				c-1.052-5.268,4.009-11.563,7.705-14.622c4.419-3.655,10.271-4.61,15.8-3.836c7.142,1,11.948,6.06,15.758,11.79
				c-0.757-1.138,0.779-3.828,0-5c-4.857-7.305-10.83-12.014-19.892-12.102c-7.706-0.075-14.311,5.05-17.67,11.676
				c-2.201,4.34-2.018,9.127-1.979,13.835c0.025,3.022,0.755,5.843,1.982,8.598c0.832,1.867,2.122,3.52,3.386,5.105
				c0.929,1.165,3.717,2.879,4.164,4.181C31.395,89.247,32.418,87.228,31.902,85.726L31.902,85.726z"/>
		</g>
	</g>
	<g>
		<g>
			<path fill="#FFFFFF" d="M61.91,64.432c2.739-1.435,5.669-2.495,8.214-4.281c0.239-0.167,0.025-2.229,0.025-2.5
				c0-0.243-0.216-2.366-0.025-2.5c-2.545,1.786-5.475,2.846-8.214,4.281c-0.2,0.105-0.025,2.281-0.025,2.5
				C61.885,62.127,62.059,64.354,61.91,64.432L61.91,64.432z"/>
		</g>
	</g>
	<g>
		<g>
			<path fill="#FFFFFF" d="M70.124,55.151c-0.918-1.376-2.724-2.376-3.972-3.485c-1.937-1.719-3.524-3.772-4.974-5.903
				c-2.179-3.204-4.507-8.483-4.061-12.466c0.922-8.243,6.561-15.394,13.342-19.765c7.376-4.753,16.114-4.685,24.057-1.524
				c3.881,1.544,7.143,4.356,9.86,7.459c3.121,3.562,4.014,7.682,6.041,11.753c-0.657-1.32,0.672-3.65,0-5
				c-2.283-4.585-3.457-8.804-6.957-12.799c-3.388-3.867-7.996-6.412-12.911-7.73c-10.224-2.743-20.014,0.971-26.983,8.72
				c-5.543,6.162-6.736,13.607-6.689,21.528c0.021,3.739,0.843,7.229,2.157,10.728c1.088,2.897,2.972,5.446,4.95,7.786
				c1.754,2.074,4.681,3.512,6.14,5.699C69.366,59.016,70.904,56.321,70.124,55.151L70.124,55.151z"/>
		</g>
	</g>
	<g>
		<g>
			<path fill="#FFFFFF" d="M70.124,60.151c9.2,4.012,18.899,3.999,27.975-0.356c0.681-0.327-0.619-4.703,0-5
				c-9.075,4.355-18.774,4.369-27.975,0.356C70.702,55.404,69.481,59.871,70.124,60.151L70.124,60.151z"/>
		</g>
	</g>
	<g>
		<g>
			<path fill="#FFFFFF" d="M110.418,26.22c-11.89,8.154-14.975,20.225-12.319,33.575c-0.317-1.595,0.32-3.39,0-5
				c-0.309-1.55-0.674-3.089-0.929-4.649c0.485,2.967,0.216,0.143,0.451-0.978c0.317-1.511,0.789-2.99,1.274-4.453
				c1.907-5.738,6.683-10.176,11.522-13.495C111.221,30.67,109.667,26.735,110.418,26.22L110.418,26.22z"/>
		</g>
	</g>
	<g>
		<g>
			<path fill="#FFFFFF" d="M134.118,73.345c1.998-2.791,5.093-4.808,7.089-7.791c2.146-3.208,3.7-7.328,3.89-11.203
				c0.228-4.663,0.05-9.021-1.047-13.585c-3.437-14.292-21.163-20.171-33.632-14.546c-0.656,0.296,0.593,4.732,0,5
				c9.961-4.494,21.548-1.946,28.977,5.995c3.516,3.758,6.21,10.013,5.25,15.144c-0.641,3.426-2.358,6.583-4.272,9.444
				c-1.709,2.554-4.544,4.154-6.254,6.542C133.316,69.464,134.894,72.262,134.118,73.345L134.118,73.345z"/>
		</g>
	</g>
	<g>
		<g>
			<path fill="#FFFFFF" d="M53.765,90.503c9.244-7.229,11.572-20.182,8.146-31.071c0.474,1.505-0.48,3.474,0,5
				c2.573,8.175-1.678,16.013-8.146,21.071C52.933,86.153,54.55,89.889,53.765,90.503L53.765,90.503z"/>
		</g>
	</g>
	<g>
		<g>
			<path fill="#FFFFFF" d="M72.771,112.087c4.137-0.35,8.271-0.226,12.414-0.088c-0.018,0,0.093-4.997,0-5
				c-4.144-0.138-8.277-0.262-12.414,0.088C72.593,107.102,72.873,112.078,72.771,112.087L72.771,112.087z"/>
		</g>
	</g>
	<g>
		<g>
			<path fill="#FFFFFF" d="M85.185,111.999c1.461-8.39,2.747-16.926,7.153-24.36c3.817-6.441,10.247-10.667,16.753-14.013
				c0.707-0.364-0.647-4.667,0-5c-6.68,3.436-12.628,7.625-16.753,14.013c-4.617,7.152-5.727,16.168-7.153,24.36
				C84.902,108.622,85.465,110.389,85.185,111.999L85.185,111.999z"/>
		</g>
	</g>
	<g>
		<g>
			<path fill="#FFFFFF" d="M109.091,68.625c-4.795-3.784-8.819-8.023-10.992-13.831c0.542,1.449-0.552,3.526,0,5
				c2.173,5.807,6.197,10.046,10.992,13.831C108.304,73.004,109.924,69.283,109.091,68.625L109.091,68.625z"/>
		</g>
	</g>
	<g>
		<g>
			<path fill="#FFFFFF" d="M85.159,109.499c0.004,3.314,0.066,6.59,0.333,9.896c0.027,0.344,21.558,0.145,23.538,0.151
				c16.357,0.052,32.715-0.017,49.072-0.12c0.002-0.03,0.005-0.06,0.007-0.089c0.481-8.595,0.134-17.232-2.207-25.558
				c-1.529-5.44-4.132-10.521-7.597-14.973c-1.849-2.375-4.113-4.375-6.524-6.156c-2.282-1.685-5.71-2.402-7.663-4.304
				c0.813,0.792-0.852,4.17,0,5c1.125,1.096,2.896,1.537,4.307,2.244c1.948,0.976,3.713,2.279,5.404,3.639
				c3.345,2.691,5.928,6.226,8.067,9.91c1.688,2.907,10.18,25.263,4.246,25.3c-12.432,0.079-24.863,0.125-37.294,0.124
				c-6.544,0-13.088-0.022-19.632-0.058c-3.269-0.018-6.537-0.043-9.806-0.072c-1.306-0.012-2.612-0.024-3.919-0.038
				c-0.147-0.001-0.282-4.177-0.282-4.896C85.207,106.671,85.157,106.671,85.159,109.499L85.159,109.499z"/>
		</g>
	</g>
	<g>
		<g>
			<path fill="#FFFFFF" d="M134.118,68.345c-8.199,3.71-16.762,3.896-25.027,0.28c0.58,0.254-0.644,4.718,0,5
				c8.266,3.616,16.828,3.43,25.027-0.28C134.775,73.048,133.523,68.614,134.118,68.345L134.118,68.345z"/>
		</g>
	</g>
	<g>
		<g>
			<path fill="#FFFFFF" d="M72.771,107.087c-1.807-4.642-4.006-9.017-7.099-12.942c-1.529-1.941-3.39-3.564-5.385-5.005
				c-2.046-1.478-4.647-1.994-6.522-3.637c0.805,0.705-0.847,4.258,0,5c1.84,1.611,4.438,2.299,6.522,3.637
				c2.071,1.33,3.798,3.148,5.385,5.005c3.204,3.749,5.325,8.387,7.099,12.942C72.212,110.653,73.339,108.546,72.771,107.087
				L72.771,107.087z"/>
		</g>
	</g>
	<g>
		<g>
			<path fill="#FFFFFF" d="M53.765,85.503c-7.159,3.275-14.612,3.176-21.862,0.223c0.55,0.224-0.614,4.75,0,5
				c7.25,2.953,14.703,3.052,21.862-0.223C54.426,90.2,53.166,85.777,53.765,85.503L53.765,85.503z"/>
		</g>
	</g>
</g>
</svg>
