<?xml version="1.0" encoding="utf-8"?>
<!-- Generator: Adobe Illustrator 15.0.2, SVG Export Plug-In . SVG Version: 6.00 Build 0)  -->
<!DOCTYPE svg PUBLIC "-//W3C//DTD SVG 1.1//EN" "http://www.w3.org/Graphics/SVG/1.1/DTD/svg11.dtd">
<svg version="1.1" id="Layer_1" xmlns="http://www.w3.org/2000/svg" xmlns:xlink="http://www.w3.org/1999/xlink" x="0px" y="0px"
	 width="170px" height="135px" viewBox="0 0 170 135" enable-background="new 0 0 170 135" xml:space="preserve">
<g>
	<path fill-rule="evenodd" clip-rule="evenodd" fill="#FFFFFF" d="M30.254,58.734c36.618,0,73.236,0,109.853,0
		c-2.074,51.088-106.374,52.075-110.2,1.04C29.878,59.282,29.851,58.792,30.254,58.734z M31.987,61.853
		c6.64,45.292,101.131,44.624,106.04-1.04c-35.23,0-70.462,0-105.694,0C31.93,60.872,31.957,61.361,31.987,61.853z"/>
	<g>
		<path fill="#FFFFFF" d="M30.254,61.234c36.618,0,73.236,0,109.853,0c-0.002-1.637-0.005-3.274-0.007-4.911
			c-1.438,27.52-31.223,38.506-54.896,38.729c-23.625,0.224-52.96-10.814-55.297-37.779c0.004,1.553,0.008,3.106,0.013,4.659
			C30.032,61.7,30.143,61.467,30.254,61.234c0.849-0.904-0.813-4.134,0-5c-2.09,2.225,0.334,11.12,1.013,13.501
			c1.758,6.167,5.509,11.542,10.164,15.873c10.17,9.463,24.729,13.378,38.265,14.287c25.094,1.684,58.872-9.174,60.418-38.751
			c0.023-0.46,0.034-4.911-0.007-4.911c-36.617,0-73.235,0-109.853,0C30.217,56.234,30.217,61.234,30.254,61.234z"/>
		<path fill="#FFFFFF" d="M31.987,64.353c3.956,24.748,31.828,33.649,53.669,33.588c21.754-0.061,49.387-9.889,52.371-34.628
			c0.059-0.482,0.023-5,0-5c-18.612,0-37.226,0-55.838,0c-9.307,0-18.613,0-27.919,0c-4.653,0-9.306,0-13.959,0
			c-2.097,0-8.293-1.457-8.336,1.381c-0.017,1.14-0.016,2.28-0.009,3.42c0,0.132,0.02,1.821,0.034,0.897
			c0.021-1.391,47.306-0.698,52.184-0.698c17.948,0,35.896,0,53.844,0c0-1.667,0-3.333,0-5
			c-3.006,24.92-30.604,34.317-52.371,34.628c-21.82,0.312-49.742-9.021-53.669-33.588C32.246,60.971,31.727,62.723,31.987,64.353z"
			/>
	</g>
</g>
<g>
	<path fill-rule="evenodd" clip-rule="evenodd" fill="#FFFFFF" d="M56.245,103.783c14.629-2.678,22.25,15.395,12.476,24.259
		c-8.519,7.727-23.757,1.707-23.911-10.396C44.715,110.256,49.401,105.036,56.245,103.783z M54.166,128.734
		c19.895,7.896,23.319-27.297,2.079-22.873C45.067,108.191,43.727,124.593,54.166,128.734z"/>
	<g>
		<path fill="#FFFFFF" d="M56.245,106.283c6.987-1.021,12.948,2.204,15.779,8.695c0.521,1.196,0.769,2.489,0.969,3.769
			c0.028-1.432-0.045-1.481-0.22-0.15c-0.181,0.976-0.571,1.894-0.959,2.799c-1.406,3.283-4.411,5.583-7.648,6.845
			c-6.25,2.434-13.501-0.703-17.196-5.914C41.889,115.159,49.068,107.887,56.245,106.283c0.391-0.087-0.318-4.929,0-5
			c-9.668,2.16-11.596,9.844-11.448,18.521c0.164,9.568,9.326,15.742,18.38,13.735c8.542-1.894,10.065-10.178,9.94-17.506
			c-0.16-9.374-7.45-16.127-16.872-14.75C55.969,101.323,56.446,106.254,56.245,106.283z"/>
		<path fill="#FFFFFF" d="M54.166,131.234c7.446,2.754,14.234-0.384,16.164-8.23c1.229-5.001,0.94-12.193-2.25-16.362
			c-5.605-7.322-17.497-3.199-20.346,4.415C45.133,118.007,47.082,128.069,54.166,131.234c-0.589-0.263,0.652-4.709,0-5
			c-3.285-1.468-5.432-3.85-6.584-7.253c-0.315-0.932-0.181-3.237-0.436-0.309c0.078-0.895,0.333-1.761,0.588-2.616
			c0.515-1.732,1.553-3.236,2.745-4.564c4.214-4.697,12.859-4.733,17.2-0.312c1.602,1.631,2.42,3.893,2.831,6.094
			c0.481,2.577,0.504-4.471,0.048-0.535c-0.074,0.64-0.227,1.266-0.38,1.889c-0.304,1.235-0.841,2.396-1.46,3.501
			c-3.043,5.427-9.174,6.095-14.55,4.106C54.675,126.423,53.591,131.021,54.166,131.234z"/>
	</g>
</g>
<g>
	<path fill-rule="evenodd" clip-rule="evenodd" fill="#FFFFFF" d="M108.226,103.783c14.635-2.678,22.247,15.396,12.476,24.259
		c-8.518,7.727-23.758,1.707-23.911-10.396C96.696,110.256,101.382,105.036,108.226,103.783z M106.146,128.734
		c19.896,7.896,23.318-27.297,2.079-22.873C97.048,108.191,95.709,124.593,106.146,128.734z"/>
	<g>
		<path fill="#FFFFFF" d="M108.226,106.283c6.988-1.021,12.949,2.202,15.78,8.696c0.521,1.196,0.768,2.488,0.969,3.769
			c0.027-1.432-0.047-1.482-0.221-0.15c-0.181,0.976-0.571,1.894-0.96,2.799c-1.406,3.282-4.409,5.582-7.647,6.844
			c-6.249,2.434-13.502-0.703-17.196-5.914C93.87,115.159,101.049,107.887,108.226,106.283c0.391-0.087-0.318-4.929,0-5
			c-9.668,2.16-11.597,9.844-11.448,18.521c0.163,9.568,9.326,15.742,18.381,13.735c8.503-1.885,10.112-10.182,9.939-17.505
			c-0.222-9.365-7.4-16.135-16.872-14.751C107.95,101.323,108.427,106.254,108.226,106.283z"/>
		<path fill="#FFFFFF" d="M106.146,131.234c7.446,2.754,14.234-0.383,16.164-8.23c1.229-5.001,0.94-12.193-2.251-16.362
			c-5.604-7.322-17.496-3.199-20.345,4.415C97.114,118.007,99.063,128.069,106.146,131.234c-0.589-0.264,0.652-4.709,0-5
			c-3.284-1.468-5.432-3.85-6.584-7.253c-0.315-0.932-0.181-3.237-0.436-0.309c0.077-0.895,0.333-1.761,0.588-2.616
			c0.515-1.732,1.553-3.236,2.744-4.564c4.214-4.697,12.858-4.733,17.2-0.312c1.602,1.631,2.42,3.893,2.83,6.094
			c0.481,2.577,0.504-4.471,0.048-0.535c-0.073,0.64-0.227,1.266-0.38,1.889c-0.304,1.235-0.841,2.396-1.461,3.501
			c-3.043,5.427-9.174,6.095-14.55,4.106C106.655,126.423,105.571,131.021,106.146,131.234z"/>
	</g>
</g>
<g>
	<path fill-rule="evenodd" clip-rule="evenodd" fill="#FFFFFF" stroke="#FFFFFF" stroke-miterlimit="10" d="M92,53.5h46.25
		c0,0-10.648-6.602-7.943-23.605"/>
	<path fill-rule="evenodd" clip-rule="evenodd" fill="#FFFFFF" stroke="#FFFFFF" stroke-miterlimit="10" d="M89.437,51.686
		l38.868-23.795c0,0-11.775-0.531-18.348-16.445"/>
	<path fill-rule="evenodd" clip-rule="evenodd" fill="#FFFFFF" stroke="#FFFFFF" stroke-miterlimit="10" d="M87.253,50.582
		l20.727-40.587c0,0-10.321,5.695-24.234-4.446"/>
</g>
</svg>
